<svg version="1.0" xmlns="http://www.w3.org/2000/svg"
 width="628px" height="355px" viewBox="0 0 320.000000 180.000000"
 preserveAspectRatio="xMidYMid meet">
<g transform="translate(0.000000,180.000000) scale(0.100000,-0.100000)"
fill="#000000" stroke="none">
<path d="M0 905 l0 -895 289 0 289 0 4 133 c3 125 5 135 35 197 18 36 40 85 48 110 9
25 27 62 40 82 14 21 25 39 25 42 0 12 94 144 146 206 51 60 69 74 131 100 39
16 79 30 88 30 17 0 89 47 134 88 14 13 38 26 54 29 16 3 31 12 34 19 7 18
-37 93 -59 100 -10 3 -20 17 -24 32 -3 15 -9 45 -13 67 -5 22 -5 92 -2 155 5
101 10 121 34 162 41 71 96 112 183 138 l76 22 68 -26 c77 -30 160 -102 183
-158 11 -26 14 -70 12 -169 -3 -166 -11 -216 -35 -222 -24 -6 -53 -64 -46 -91
3 -11 18 -30 32 -40 25 -18 28 -18 56 -2 34 21 53 11 61 -33 8 -38 49 -86 87
-100 16 -6 45 -16 63 -23 42 -16 110 -79 140 -131 31 -53 84 -190 93 -242 4
-22 17 -67 29 -100 29 -77 42 -180 25 -200 -10 -12 -9 -16 4 -21 13 -5 16 -21
16 -80 l0 -74 450 0 450 0 0 895 0 895 -1600 0 -1600 0 0 -895z"/>
</g>
</svg>
